<svg width="36" height="43" viewBox="0 0 36 43" fill="none" xmlns="http://www.w3.org/2000/svg">
<g clip-path="url(#clip0_1_583)">
<path d="M23.3502 41.6765C31.5855 41.6765 36.0119 31.6912 30.3502 25.8235L30.2472 25.7206L17.8943 13.3677L5.54137 25.7206L5.43843 25.8235C-0.326281 31.6912 4.20315 41.6765 12.4384 41.6765H23.3502Z" fill="white"/>
<path d="M5.54139 17.2793L7.08551 18.8234L17.8943 8.0146L28.7031 18.8234L30.2472 17.2793C34.159 13.3675 35.7031 8.32345 35.2913 3.58816C35.0854 1.73522 33.5413 0.396973 31.6884 0.396973H4.20316C2.35022 0.396973 0.703164 1.73522 0.600222 3.58816C0.0855167 8.32345 1.52668 13.2646 5.54139 17.2793Z" fill="white"/>
</g>
<defs>
<clipPath id="clip0_1_583">
<rect width="35" height="42.2059" fill="white" transform="translate(0.5 0.396973)"/>
</clipPath>
</defs>
</svg>
